<svg width="35" height="35" viewBox="0 0 35 35" fill="none" xmlns="http://www.w3.org/2000/svg">
<path fill-rule="evenodd" clip-rule="evenodd" d="M0 17.4997C0 7.83497 7.83518 0 17.4999 0C27.165 0 35 7.83497 35 17.4997C35 27.1655 27.165 35 17.4999 35C7.83518 35 0 27.1655 0 17.4997ZM7.52116 13.4904C12.9061 11.856 22.2108 12.164 27.8518 15.5141C28.6277 15.9759 29.6331 15.7195 30.0945 14.9417C30.5555 14.1651 30.3005 13.1606 29.5225 12.6988C23.0285 8.8439 12.7526 8.48154 6.57076 10.3579C5.70541 10.6208 5.21788 11.5346 5.47993 12.4C5.74177 13.2647 6.65623 13.7528 7.52116 13.4904ZM25.7902 20.9252C26.4315 21.3195 27.2712 21.118 27.667 20.4759C28.0613 19.8352 27.8594 18.9951 27.2181 18.6001C21.8166 15.2806 13.9152 14.3465 7.55933 16.2753C6.839 16.4948 6.43213 17.2554 6.64946 17.9768C6.86868 18.6971 7.6308 19.1038 8.35216 18.8858C13.916 17.1969 21.0875 18.0345 25.7902 20.9252ZM25.5257 25.2411C25.2112 25.7568 24.5398 25.9183 24.0259 25.604C19.9165 23.0924 14.744 22.5253 8.6525 23.9166C8.0655 24.0512 7.48038 23.6834 7.34664 23.0966C7.21206 22.5096 7.57859 21.9245 8.16685 21.7905C14.833 20.2667 20.5511 20.9225 25.1637 23.7411C25.678 24.0551 25.84 24.727 25.5257 25.2411Z" fill="#8DEF69"/>
</svg>
