<svg width="30" height="30" viewBox="0 0 30 30" fill="none" xmlns="http://www.w3.org/2000/svg">
<path fill-rule="evenodd" clip-rule="evenodd" d="M0 14.9997C0 6.71569 6.71586 0 14.9999 0C23.2843 0 30 6.71569 30 14.9997C30 23.2847 23.2843 30 14.9999 30C6.71586 30 0 23.2847 0 14.9997ZM6.44665 11.5632C11.0624 10.1623 19.0378 10.4263 23.8729 13.2977C24.538 13.6936 25.3997 13.4738 25.7952 12.8071C26.1903 12.1415 25.9718 11.2805 25.305 10.8847C19.7387 7.58046 10.9307 7.26987 5.63202 8.87818C4.89029 9.10351 4.47241 9.88679 4.69702 10.6285C4.92146 11.3697 5.70528 11.7881 6.44665 11.5632ZM22.1059 17.9358C22.6556 18.2738 23.3753 18.1012 23.7146 17.5507C24.0525 17.0016 23.8795 16.2815 23.3298 15.943C18.7 13.0977 11.9273 12.297 6.47942 13.9503C5.862 14.1384 5.51325 14.7903 5.69954 15.4087C5.88743 16.0261 6.54068 16.3746 7.15899 16.1878C11.928 14.7402 18.075 15.4581 22.1059 17.9358ZM21.8791 21.6352C21.6096 22.0772 21.0341 22.2157 20.5936 21.9463C17.0712 19.7935 12.6377 19.3074 7.4164 20.4999C6.91325 20.6153 6.41172 20.3 6.29709 19.7971C6.18174 19.2939 6.49591 18.7924 7.00013 18.6776C12.714 17.3714 17.6152 17.9335 21.5689 20.3495C22.0097 20.6187 22.1485 21.1945 21.8791 21.6352Z" fill="black"/>
</svg>
