<svg width="38" height="28" viewBox="0 0 38 28" fill="none" xmlns="http://www.w3.org/2000/svg">
<path d="M37.311 6.46527C37.311 6.46527 36.9429 3.86654 35.8094 2.72545C34.3741 1.22364 32.7695 1.21627 32.0334 1.12793C26.7632 0.745117 18.8505 0.745117 18.8505 0.745117H18.8358C18.8358 0.745117 10.9232 0.745117 5.65295 1.12793C4.91689 1.21627 3.31228 1.22364 1.87696 2.72545C0.743422 3.86654 0.382752 6.46527 0.382752 6.46527C0.382752 6.46527 0 9.52044 0 12.5682V15.4246C0 18.4724 0.375391 21.5276 0.375391 21.5276C0.375391 21.5276 0.743422 24.1263 1.8696 25.2674C3.30492 26.7692 5.18923 26.7177 6.02835 26.8797C9.0462 27.1668 18.8432 27.2551 18.8432 27.2551C18.8432 27.2551 26.7632 27.2404 32.0334 26.8649C32.7695 26.7766 34.3741 26.7692 35.8094 25.2674C36.9429 24.1263 37.311 21.5276 37.311 21.5276C37.311 21.5276 37.6864 18.4798 37.6864 15.4246V12.5682C37.6864 9.52044 37.311 6.46527 37.311 6.46527ZM14.9494 18.8921V8.29837L25.1291 13.6136L14.9494 18.8921Z" fill="black"/>
</svg>
